<?xml version="1.0" encoding="UTF-8"?>
<svg width="128" height="128" viewBox="0 0 128 128" fill="none" xmlns="http://www.w3.org/2000/svg">
  <defs>
    <linearGradient id="g" x1="0" y1="0" x2="128" y2="128" gradientUnits="userSpaceOnUse">
      <stop stop-color="#38bdf8"/>
      <stop offset="0.5" stop-color="#3b82f6"/>
      <stop offset="1" stop-color="#6366f1"/>
    </linearGradient>
  </defs>
  <rect x="8" y="8" width="112" height="112" rx="24" fill="url(#g)"/>
  <g fill="#fff" opacity="0.95">
    <path d="M36 84c-1.7 0-3-1.3-3-3V47c0-1.7 1.3-3 3-3h22c2.8 0 5 2.2 5 5s-2.2 5-5 5H44v24c0 1.7-1.3 3-3 3H36z"/>
    <path d="M92 44H70c-1.7 0-3 1.3-3 3v34c0 1.7 1.3 3 3 3h22c7.2 0 13-5.8 13-13V57c0-7.2-5.8-13-13-13zm-3 30H73V57h16c2.2 0 4 1.8 4 4v9c0 2.2-1.8 4-4 4z"/>
  </g>
</svg>